<svg width="29" height="29" viewBox="0 0 29 29" fill="none" xmlns="http://www.w3.org/2000/svg">
<path d="M28.8164 14.3555C28.8169 18.1604 27.306 21.8098 24.6161 24.5008C21.9262 27.1919 18.2775 28.7044 14.4726 28.7056C6.57347 28.7145 0.0535408 22.3011 0.111714 14.2445C0.169888 6.29441 6.64506 -0.0116187 14.4779 1.60737e-05C18.2829 0.00262628 21.931 1.51645 24.6199 4.20855C27.3088 6.90064 28.8183 10.5505 28.8164 14.3555V14.3555ZM15.832 19.1955V14.8755C15.832 14.8191 15.832 14.7627 15.832 14.7063C15.8258 14.6052 15.8732 14.5658 15.9707 14.5721C16.02 14.5721 16.0692 14.5721 16.1193 14.5721C16.7825 14.5721 17.4457 14.5721 18.1097 14.5721C18.4319 14.5721 18.397 14.6419 18.4337 14.266C18.4955 13.6341 18.5483 13.0014 18.6038 12.3695C18.6253 12.1162 18.6405 11.8621 18.6664 11.6097C18.6763 11.5148 18.6467 11.4799 18.5537 11.4871C18.5044 11.4871 18.4552 11.4871 18.4051 11.4871H16.0334C15.8356 11.4871 15.8338 11.4871 15.8329 11.292C15.8329 10.7765 15.8329 10.261 15.8329 9.74634C15.8341 9.60512 15.8433 9.46407 15.8607 9.32391C15.9027 8.95965 16.0764 8.77976 16.4361 8.72964C16.5479 8.71426 16.6607 8.70649 16.7735 8.70638C17.3526 8.70638 17.9308 8.70638 18.5098 8.70638C18.6736 8.70638 18.6781 8.7019 18.6781 8.5417C18.6781 7.58705 18.6781 6.6342 18.6781 5.68313C18.6781 5.51398 18.6781 5.51398 18.4991 5.5104H16.0191C15.4041 5.50029 14.7915 5.59099 14.2058 5.7789C13.1909 6.1163 12.5394 6.80186 12.2834 7.84541C12.1961 8.21668 12.1534 8.59705 12.1563 8.97845C12.1563 9.74724 12.1563 10.5169 12.1563 11.2866C12.1563 11.4844 12.1563 11.4862 11.9603 11.4862H10.4129C10.2384 11.4862 10.2339 11.4862 10.2339 11.6652C10.2339 12.5894 10.2339 13.5142 10.2339 14.4396C10.2339 14.6141 10.2339 14.6186 10.4129 14.6186C10.8998 14.6186 11.3867 14.6186 11.8735 14.6186C12.185 14.6186 12.1546 14.5873 12.1546 14.905C12.1546 17.7922 12.1546 20.6794 12.1546 23.5666C12.1546 23.81 12.1411 23.7957 12.3855 23.7957C13.4511 23.7957 14.517 23.7957 15.5832 23.7957C15.8517 23.7957 15.8302 23.8145 15.8302 23.5398C15.832 22.0911 15.8326 20.643 15.832 19.1955Z" fill="white"/>
</svg>
