<svg width="29" height="29" viewBox="0 0 29 29" fill="none" xmlns="http://www.w3.org/2000/svg">
<path d="M28.7048 14.3537C28.7061 16.2395 28.3354 18.1071 27.6141 19.8495C26.8927 21.5919 25.8348 23.175 24.5009 24.5081C23.167 25.8411 21.5833 26.898 19.8405 27.6183C18.0976 28.3386 16.2298 28.708 14.3439 28.7056C6.34014 28.7002 -0.029432 22.1677 0.000102293 14.2883C0.0296366 6.40895 6.4529 0 14.3672 0C16.2513 0.00046959 18.1168 0.372176 19.8571 1.09388C21.5975 1.81558 23.1786 2.87314 24.51 4.20612C25.8415 5.5391 26.8973 7.12138 27.6171 8.86254C28.3368 10.6037 28.7064 12.4696 28.7048 14.3537V14.3537ZM14.3717 22.9312C15.2819 22.9312 16.193 22.9401 17.1032 22.9312C17.7234 22.9222 18.3454 22.8998 18.9558 22.7683C20.7395 22.3745 21.9029 21.3256 22.4032 19.5607C22.5822 18.9387 22.6118 18.2961 22.635 17.6535C22.6834 16.2707 22.669 14.8871 22.6672 13.5034C22.6672 12.6138 22.6574 11.7242 22.5894 10.8373C22.5487 10.1165 22.3566 9.41238 22.0255 8.7708C21.3516 7.51783 20.2821 6.80811 18.903 6.53335C18.3042 6.41432 17.6965 6.39463 17.0906 6.38031C15.4886 6.34361 13.8857 6.36062 12.2828 6.36778C11.5496 6.35665 10.8165 6.39792 10.0892 6.49129C9.33295 6.60405 8.62234 6.84928 7.99764 7.29677C6.91919 8.07719 6.37594 9.16548 6.19605 10.4587C6.12138 11.0755 6.0864 11.6964 6.09133 12.3176C6.07642 13.6446 6.07254 14.9718 6.0797 16.2994C6.08417 17.146 6.08775 17.9936 6.19605 18.8357C6.26751 19.4687 6.46339 20.0812 6.77241 20.6382C7.44096 21.8071 8.46392 22.4837 9.76791 22.7575C10.4284 22.8954 11.0987 22.9177 11.7691 22.9267C12.6345 22.9392 13.5027 22.9312 14.3717 22.9312Z" fill="white"/>
<path d="M7.56922 14.6245C7.56027 13.6508 7.57041 12.6771 7.59965 11.7033C7.61576 11.1601 7.6435 10.6177 7.79476 10.0924C8.12142 8.94947 8.88395 8.27913 10.0322 8.02406C10.4043 7.94649 10.7826 7.90246 11.1626 7.8925C12.9525 7.82269 14.7344 7.84775 16.5199 7.86207C17.1679 7.86654 17.8185 7.87102 18.462 7.97573C19.1055 8.08044 19.6855 8.3015 20.1625 8.75705C20.6395 9.21259 20.8928 9.77017 21.0154 10.4011C21.1308 10.9927 21.138 11.5932 21.1487 12.1911C21.1792 13.9766 21.1801 15.7621 21.138 17.5475C21.1264 18.0765 21.1031 18.6072 20.968 19.1227C20.6386 20.3757 19.8099 21.0917 18.5515 21.3127C17.8355 21.4398 17.1195 21.4389 16.3982 21.4416C14.8946 21.447 13.3911 21.4496 11.8875 21.4353C11.2467 21.4291 10.6023 21.4174 9.97224 21.2715C9.35951 21.1451 8.80394 20.8243 8.38813 20.3569C8.02387 19.9398 7.83056 19.4476 7.71958 18.9151C7.6408 18.4845 7.59977 18.0479 7.59696 17.6102C7.56952 16.615 7.56027 15.6198 7.56922 14.6245ZM10.1083 14.6541C10.1234 15.7736 10.5785 16.8422 11.3752 17.629C12.1718 18.4157 13.2461 18.8573 14.3658 18.8584C15.4854 18.8594 16.5605 18.4198 17.3587 17.6346C18.1568 16.8494 18.6139 15.7816 18.6312 14.6621C18.6491 12.3128 16.7177 10.3868 14.363 10.3904C13.2339 10.3932 12.152 10.8436 11.3544 11.6429C10.5569 12.4421 10.1087 13.525 10.1083 14.6541ZM19.7937 10.2239C19.7937 10.0269 19.7353 9.83425 19.6258 9.67042C19.5163 9.50659 19.3607 9.37891 19.1786 9.30355C18.9966 9.22818 18.7962 9.20851 18.603 9.24701C18.4097 9.28552 18.2322 9.38048 18.093 9.51988C17.9537 9.65928 17.8589 9.83685 17.8206 10.0301C17.7822 10.2234 17.8021 10.4237 17.8776 10.6057C17.9531 10.7877 18.0809 10.9432 18.2449 11.0526C18.4088 11.1619 18.6015 11.2202 18.7985 11.22C18.9294 11.2204 19.059 11.1949 19.18 11.1449C19.301 11.095 19.4109 11.0216 19.5034 10.929C19.5959 10.8364 19.6691 10.7265 19.719 10.6055C19.7688 10.4845 19.7942 10.3548 19.7937 10.2239Z" fill="white"/>
<path d="M17.131 14.6612C17.1287 15.2077 16.9644 15.7412 16.6588 16.1943C16.3533 16.6474 15.9202 16.9997 15.4144 17.2066C14.9085 17.4135 14.3527 17.4658 13.8172 17.3568C13.2817 17.2478 12.7905 16.9824 12.4058 16.5942C12.0211 16.206 11.7602 15.7125 11.6561 15.176C11.552 14.6395 11.6093 14.0842 11.8208 13.5803C12.0323 13.0764 12.3885 12.6465 12.8443 12.345C13.3002 12.0436 13.8352 11.8841 14.3817 11.8868C15.1141 11.8903 15.8151 12.1845 16.3307 12.7048C16.8463 13.2251 17.1341 13.9288 17.131 14.6612Z" fill="white"/>
</svg>
