<svg width="30" height="29" viewBox="0 0 30 29" fill="none" xmlns="http://www.w3.org/2000/svg">
<path d="M14.3694 28.9984C17.2282 29.0408 20.0357 28.2371 22.4389 26.6883C24.8422 25.1395 26.734 22.9148 27.8764 20.2939C29.0188 17.6729 29.3609 14.7728 28.8597 11.9579C28.3585 9.14312 27.0362 6.5393 25.0593 4.47385C23.0823 2.40839 20.5389 0.973481 17.7487 0.349518C14.9585 -0.274446 12.0462 -0.059613 9.37774 0.967007C6.70931 1.99363 4.40394 3.78621 2.75146 6.1194C1.09898 8.45258 0.173146 11.2222 0.0903545 14.0801C0.0333775 16.0011 0.359091 17.9142 1.04853 19.708C1.73798 21.5019 2.77737 23.1407 4.10622 24.5291C5.43506 25.9174 7.0268 27.0275 8.78878 27.7948C10.5508 28.5621 12.4478 28.9713 14.3694 28.9984Z" fill="white"/>
<path d="M13.114 18.657C12.9229 18.6074 12.7384 18.5596 12.5562 18.5047C11.9638 18.3266 11.3921 18.0855 10.8509 17.7858C10.6533 17.6853 10.4643 17.5686 10.286 17.4369C10.1355 17.3177 10.0114 17.1684 9.92165 16.9987C9.83186 16.8289 9.7783 16.6423 9.76439 16.4507C9.75047 16.2591 9.7765 16.0667 9.84081 15.8857C9.90512 15.7047 10.0063 15.5391 10.138 15.3993C10.2584 15.2665 10.4046 15.1595 10.5676 15.085C10.7306 15.0104 10.907 14.9697 11.0861 14.9655C11.3777 14.9516 11.6663 15.0291 11.9117 15.1874C12.5582 15.5907 13.2767 15.8649 14.0273 15.9949C14.4002 16.0587 14.7783 16.087 15.1565 16.0793C15.9615 16.0688 16.7558 15.8932 17.4904 15.5634C17.7453 15.448 17.9921 15.3155 18.2292 15.1667C18.4683 15.0203 18.746 14.9496 19.026 14.9637C19.3059 14.9778 19.5751 15.0761 19.7983 15.2458C19.9527 15.3595 20.0807 15.5052 20.1736 15.673C20.2666 15.8408 20.3222 16.0267 20.3366 16.218C20.3814 16.7681 20.1733 17.2091 19.714 17.5125C19.205 17.8426 18.6604 18.1143 18.0906 18.3223C17.7594 18.4464 17.4209 18.5501 17.077 18.6328C17.0511 18.6393 17.0257 18.6487 16.9951 18.6582C17.0116 18.6925 17.0361 18.7225 17.0664 18.7455L19.5842 21.2671C19.8053 21.4811 19.9481 21.7632 19.9899 22.0681C20.0193 22.2546 20.0089 22.4451 19.9594 22.6272C19.9099 22.8093 19.8224 22.9789 19.7028 23.1247C19.5882 23.2702 19.4456 23.3912 19.2835 23.4805C19.1214 23.5699 18.9431 23.6258 18.759 23.645C18.575 23.6641 18.3889 23.6461 18.212 23.592C18.035 23.538 17.8706 23.4489 17.7286 23.3301C17.6596 23.2711 17.5953 23.2121 17.5322 23.1477L15.1294 20.7436C15.0398 20.6539 15.0516 20.658 14.9667 20.7436C14.5946 21.1125 14.2231 21.4785 13.8587 21.8539C13.42 22.3072 12.9689 22.7475 12.5255 23.1967C12.3538 23.3792 12.1379 23.5142 11.8987 23.5887C11.6765 23.6606 11.4394 23.6737 11.2106 23.6267C10.9818 23.5796 10.7691 23.474 10.5932 23.3201C10.4465 23.1961 10.3272 23.0428 10.2429 22.8701C10.1586 22.6974 10.1112 22.509 10.1036 22.3169C10.0961 22.1248 10.1286 21.9333 10.1991 21.7545C10.2696 21.5757 10.3765 21.4135 10.513 21.2784C11.355 20.4359 12.1967 19.5928 13.0379 18.7491C13.0695 18.7242 13.0955 18.6928 13.114 18.657Z" fill="#23222F"/>
<path d="M19.7643 10.1059C19.7808 12.6175 17.7359 14.8157 15.0542 14.8162C14.4341 14.8185 13.8196 14.6979 13.2463 14.4614C12.673 14.2249 12.152 13.8772 11.7136 13.4382C11.2751 12.9993 10.9277 12.4778 10.6914 11.9039C10.4552 11.3299 10.3347 10.7149 10.3369 10.0941C10.3364 7.43142 12.5139 5.35663 15.0913 5.37611C17.6781 5.39559 19.7903 7.53885 19.7643 10.1059ZM15.0512 12.0331C16.0766 12.0562 16.9894 11.1938 16.9912 10.1C16.9957 9.84226 16.9488 9.58619 16.8534 9.34675C16.758 9.10731 16.6159 8.88929 16.4354 8.70542C16.2549 8.52155 16.0396 8.3755 15.8021 8.27581C15.5646 8.17612 15.3096 8.12478 15.0521 8.12478C14.7946 8.12478 14.5396 8.17612 14.3021 8.27581C14.0646 8.3755 13.8494 8.52155 13.6689 8.70542C13.4884 8.88929 13.3462 9.10731 13.2508 9.34675C13.1554 9.58619 13.1085 9.84226 13.113 10.1C13.1142 11.1607 14.0052 12.0556 15.0512 12.0331Z" fill="#23222F"/>
</svg>
