<svg width="30" height="29" viewBox="0 0 30 29" fill="none" xmlns="http://www.w3.org/2000/svg">
<path d="M14.3762 28.9984C17.235 29.0408 20.0425 28.2371 22.4458 26.6883C24.8491 25.1395 26.7408 22.9148 27.8833 20.2939C29.0257 17.6729 29.3678 14.7728 28.8665 11.9579C28.3653 9.14312 27.0431 6.5393 25.0661 4.47385C23.0892 2.40839 20.5457 0.973481 17.7556 0.349518C14.9654 -0.274446 12.053 -0.059613 9.38457 0.967007C6.71615 1.99363 4.41078 3.78621 2.7583 6.1194C1.10582 8.45258 0.179982 11.2222 0.0971904 14.0801C0.0402134 16.0011 0.365927 17.9142 1.05537 19.708C1.74481 21.5019 2.78421 23.1407 4.11305 24.5291C5.4419 25.9174 7.03364 27.0275 8.79562 27.7948C10.5576 28.5621 12.4546 28.9713 14.3762 28.9984Z" fill="white"/>
<path d="M13.4873 13.1489V11.8473L12.28 12.006V13.1489H11.8102V14.2258H12.28V17.1609H13.4873V14.2258H14.3625V13.1489H13.4873ZM6.88933 15.0806C7.25709 14.7797 7.4931 14.368 7.4931 13.8513V13.6266C7.4931 12.7192 6.76792 12.0525 5.87373 12.0525L3.31641 12.0425L3.31794 17.1339L4.52582 17.1436V15.4155H5.76735L6.57667 17.1436H7.99033L6.88933 15.0806ZM6.25884 13.7896C6.25884 14.1509 5.96995 14.356 5.61371 14.356H4.52588V13.1333H5.61371C5.96995 13.1333 6.25884 13.3871 6.25884 13.7485V13.7896ZM20.4592 13.1276H19.82V11.8271L18.6389 11.9858L18.6386 17.1436H20.4592C21.3537 17.1436 22.0786 16.4471 22.0786 15.5402V14.7701C22.0786 13.863 21.3537 13.1276 20.4592 13.1276ZM20.9214 15.4371C20.9214 15.8191 20.6672 16.0458 20.2907 16.0458H19.8239V14.2262H20.2907C20.6672 14.2262 20.9214 14.4531 20.9214 14.8351V15.4371ZM16.9442 13.1489V15.4658C16.9442 15.8477 16.8073 16.1058 16.4306 16.1058H16.4119C16.0355 16.1058 15.8982 15.8477 15.8982 15.4658V13.1489H14.7066V15.5543C14.7066 16.4615 15.0981 17.197 16.2877 17.197H16.5163C17.7692 17.197 18.1361 16.4615 18.1361 15.5543V13.1489H16.9442ZM10.2278 13.1489V15.4658C10.2278 15.8477 10.0908 16.1058 9.71416 16.1058H9.69549C9.31911 16.1058 9.18193 15.8477 9.18193 15.4658V13.1489H7.99033V15.5543C7.99033 16.4615 8.38157 17.197 9.57119 17.197H9.79988C11.0525 17.197 11.4195 16.4615 11.4195 15.5543V13.1489H10.2278ZM25.1015 15.7985C25.1015 15.7985 24.7528 16.2318 24.1399 16.1832C23.758 16.1531 23.5316 15.9563 23.5316 15.5745V15.4414H25.8693V14.7538C25.8693 13.8691 25.2301 13.0931 24.1429 13.0931C23.056 13.0931 22.4153 13.8301 22.4153 14.7148V15.5419C22.4153 16.4272 23.0547 17.2032 24.1417 17.2032C25.3704 17.2032 25.8956 16.3341 25.8956 16.3341L25.1015 15.7985ZM23.5316 14.5274C23.5316 14.1545 23.766 13.93 24.1149 13.9197H24.145C24.5081 13.9197 24.7532 14.1465 24.7532 14.5283V14.562H23.5316V14.5274Z" fill="#23222F"/>
</svg>
