<svg width="29" height="29" viewBox="0 0 29 29" fill="none" xmlns="http://www.w3.org/2000/svg">
<path d="M14.3408 28.7047C6.34864 28.7047 -0.0683635 22.1624 0.000549897 14.223C0.0649884 6.52619 6.29673 -0.00715396 14.3668 5.87924e-06C22.4762 0.00627073 28.7759 6.63359 28.7079 14.4817C28.6363 22.3109 22.2596 28.7154 14.3408 28.7047ZM23.4177 10.1151C22.8494 10.3182 22.2846 10.4936 21.6841 10.5429C21.9891 10.3259 22.2625 10.0678 22.4968 9.77586C22.7311 9.48349 22.9082 9.14948 23.0185 8.79139C22.9943 8.79366 22.9703 8.79815 22.9469 8.80481C22.8968 8.83077 22.8476 8.85762 22.7984 8.88447C22.2692 9.16799 21.705 9.38044 21.1203 9.51632C21.068 9.53233 21.0122 9.53317 20.9595 9.51875C20.9067 9.50434 20.8591 9.47525 20.8222 9.43488C20.0624 8.72426 19.1638 8.41729 18.1257 8.53453C17.6921 8.58687 17.2732 8.72472 16.8933 8.94007C16.5134 9.15543 16.18 9.44402 15.9123 9.78913C15.6447 10.1342 15.4482 10.529 15.3343 10.9506C15.2203 11.3722 15.1911 11.8122 15.2483 12.2451C15.2617 12.3454 15.2734 12.4474 15.2895 12.5745C12.5276 12.3776 10.2776 11.2257 8.48764 9.12343C8.20855 9.58785 8.05639 10.1175 8.04641 10.6592C8.01867 11.8415 8.50733 12.7794 9.47122 13.5178C8.92707 13.5097 8.476 13.3388 8.02941 13.1383C7.98734 13.6601 8.14934 14.2919 8.45989 14.8173C8.94408 15.6353 9.65917 16.1499 10.624 16.4005C10.1237 16.5464 9.66901 16.5222 9.21257 16.473C9.23852 16.7415 9.4757 17.2015 9.78536 17.5676C10.4118 18.3095 11.2272 18.6916 12.1946 18.7597C12.1812 18.7946 12.1794 18.8107 12.1705 18.8187C12.1329 18.851 12.0944 18.8814 12.0541 18.9082C10.8071 19.8102 9.28522 20.2503 7.74928 20.1532C7.6452 20.1374 7.53917 20.1401 7.43604 20.1612C7.7713 20.3794 8.12253 20.5721 8.48674 20.7376C10.1872 21.5234 11.9655 21.7579 13.8155 21.5144C15.1152 21.3513 16.3633 20.9046 17.4714 20.206C20.2146 18.4733 21.9249 15.2531 21.8389 11.9721C21.8325 11.9072 21.8445 11.8417 21.8734 11.7831C21.9024 11.7246 21.9472 11.6754 22.0027 11.641C22.2532 11.4572 22.4868 11.2514 22.7008 11.0262C22.9758 10.7526 23.2165 10.4467 23.4177 10.1151V10.1151Z" fill="white"/>
</svg>
