<svg width="29" height="29" viewBox="0 0 29 29" fill="none" xmlns="http://www.w3.org/2000/svg">
<path d="M14.2854 28.9984C17.1442 29.0408 19.9517 28.2371 22.355 26.6883C24.7582 25.1395 26.65 22.9148 27.7924 20.2939C28.9349 17.6729 29.277 14.7728 28.7757 11.9579C28.2745 9.14312 26.9523 6.5393 24.9753 4.47385C22.9984 2.40839 20.4549 0.973481 17.6647 0.349518C14.8746 -0.274446 11.9622 -0.059613 9.29375 0.967007C6.62533 1.99363 4.31996 3.78621 2.66748 6.1194C1.015 8.45258 0.0891619 11.2222 0.00637012 14.0801C-0.0506069 16.0011 0.275107 17.9142 0.96455 19.708C1.65399 21.5019 2.69339 23.1407 4.02223 24.5291C5.35108 25.9174 6.94282 27.0275 8.7048 27.7948C10.4668 28.5621 12.3638 28.9713 14.2854 28.9984Z" fill="white"/>
<path d="M10.2669 9.98785C10.2927 9.89382 10.3368 9.80583 10.3967 9.72896C10.4567 9.65209 10.5313 9.58785 10.6162 9.53996C10.8995 9.34704 11.2307 9.2364 11.5731 9.22033C12.6066 9.10885 13.6491 9.10885 14.6826 9.22033C14.8653 9.24232 15.0452 9.28332 15.2193 9.34266C15.6396 9.4788 15.8487 9.78068 15.8507 10.3173C15.8507 11.0947 15.8191 11.8701 15.8132 12.6475C15.8132 13.2394 15.8014 13.8314 15.8329 14.4233C15.8483 14.6444 15.9159 14.8588 16.0302 15.0487C16.2118 15.3506 16.4485 15.396 16.7169 15.1671C17.0087 14.9205 17.2733 14.6434 17.5061 14.3404C18.4428 13.0889 19.2017 11.7138 19.7613 10.2542C19.8009 10.0951 19.897 9.95573 20.0316 9.8621C20.1663 9.76847 20.3303 9.72691 20.4933 9.74516C21.7501 9.74516 23.005 9.72938 24.2618 9.7274C24.4009 9.72952 24.5387 9.75349 24.6703 9.79843C24.7251 9.80724 24.7775 9.82751 24.8239 9.85794C24.8704 9.88837 24.9099 9.92826 24.9399 9.975C24.9698 10.0217 24.9896 10.0743 24.9979 10.1292C25.0062 10.1841 25.0028 10.2402 24.9879 10.2937C24.918 10.6121 24.8114 10.9213 24.6703 11.2151C24.1494 12.2529 23.4272 13.1585 22.7327 14.08C22.3499 14.589 21.9652 15.0961 21.6041 15.619C21.2687 16.1043 21.2983 16.4772 21.6831 16.9271C21.8488 17.1244 22.0382 17.2961 22.2197 17.4776C22.8116 18.0695 23.4272 18.6614 23.9955 19.275C24.2889 19.6321 24.5616 20.0056 24.8123 20.3937C24.821 20.4078 24.8289 20.4223 24.836 20.4372C25.1556 21.0291 24.986 21.4572 24.323 21.5953C23.9382 21.6576 23.5486 21.6854 23.1589 21.6782C22.4328 21.6979 21.7067 21.6999 20.9885 21.7137C20.6744 21.7189 20.3625 21.6598 20.0721 21.54C19.7817 21.4202 19.5188 21.2423 19.2996 21.0172C18.8024 20.5358 18.3565 20.0051 17.877 19.5059C17.6826 19.2973 17.47 19.1065 17.2417 18.9357C16.8333 18.6397 16.4525 18.7384 16.1841 19.1744C15.9914 19.5352 15.8803 19.934 15.8586 20.3424C15.8389 20.5398 15.8349 20.7371 15.8231 20.9344C15.8247 21.0306 15.8068 21.1261 15.7705 21.2152C15.7342 21.3044 15.6802 21.3852 15.6118 21.4529C15.5434 21.5205 15.462 21.5736 15.3725 21.609C15.283 21.6443 15.1873 21.6612 15.0911 21.6585C13.268 21.7867 11.5277 21.5421 9.94533 20.5417C8.95993 19.8977 8.09402 19.0872 7.38628 18.1464C6.44553 16.9374 5.61298 15.648 4.89825 14.2931C4.28463 13.1408 3.71442 11.9609 3.14026 10.7909C3.06558 10.6301 3.00741 10.4622 2.96663 10.2897C2.94779 10.2408 2.93977 10.1884 2.94313 10.136C2.94648 10.0837 2.96113 10.0327 2.98607 9.98661C3.01101 9.94049 3.04564 9.90031 3.08758 9.86885C3.12953 9.83739 3.17779 9.81538 3.22905 9.80435C3.39379 9.7521 3.56529 9.72419 3.7381 9.72148C4.72463 9.70964 5.72299 9.70767 6.71544 9.70175C6.91262 9.6973 7.10607 9.75596 7.26756 9.86918C7.42906 9.98241 7.55015 10.1443 7.61318 10.3312C8.17719 11.7417 8.90568 13.0808 9.78354 14.3207C9.98894 14.5913 10.2131 14.8471 10.4544 15.0862C10.5423 15.1734 10.648 15.2407 10.7642 15.2835C10.8636 15.3323 10.9781 15.3404 11.0835 15.3061C11.1888 15.2719 11.2767 15.198 11.3284 15.1C11.4907 14.8055 11.5819 14.4772 11.5948 14.1411C11.6889 13.2184 11.6823 12.2883 11.5751 11.367C11.5505 11.1898 11.5088 11.0154 11.4508 10.8461C11.3048 10.3765 10.9417 10.1654 10.4899 10.0569L10.2926 10.0155C10.2833 10.007 10.2747 9.99776 10.2669 9.98785Z" fill="#23222F"/>
</svg>
