<svg width="29" height="29" viewBox="0 0 29 29" fill="none" xmlns="http://www.w3.org/2000/svg">
<path d="M14.4519 28.7052C12.5576 28.7183 10.6795 28.3563 8.92586 27.64C7.17218 26.9238 5.57764 25.8675 4.23417 24.532C2.89071 23.1965 1.82489 21.6083 1.09818 19.8589C0.371465 18.1096 -0.00176559 16.2337 6.27928e-06 14.3394C0.00177815 12.4451 0.378517 10.5698 1.1085 8.82184C1.83848 7.07384 2.90727 5.48763 4.25323 4.15467C5.5992 2.82172 7.19571 1.76839 8.95072 1.05541C10.7057 0.342439 12.5845 -0.0160721 14.4787 0.000552799C22.5783 0.00950259 28.9139 6.6234 28.819 14.5252C28.7241 22.3697 22.3286 28.7178 14.4519 28.7052ZM14.4626 20.0633C16.3475 20.0633 18.2323 20.0633 20.1171 20.0633C20.3217 20.0655 20.526 20.0442 20.7257 19.9998C21.2716 19.8764 21.7584 19.5688 22.1041 19.1287C22.4498 18.6886 22.6334 18.1429 22.624 17.5833C22.6275 15.43 22.6275 13.277 22.624 11.1242C22.6254 10.9478 22.6083 10.7717 22.5729 10.5989C22.4621 10.0393 22.1579 9.53656 21.7137 9.17871C21.2694 8.82085 20.7134 8.63071 20.1431 8.64158C16.3591 8.64158 12.5754 8.64158 8.79205 8.64158C8.61545 8.64092 8.43921 8.65741 8.2658 8.6908C7.70428 8.80592 7.2008 9.11404 6.84276 9.56167C6.48473 10.0093 6.29474 10.5682 6.3058 11.1413C6.31743 13.2794 6.3058 15.4184 6.3058 17.5574C6.30184 17.7905 6.32862 18.0231 6.38545 18.2492C6.52293 18.7688 6.82843 19.2283 7.25435 19.5561C7.68027 19.8839 8.20267 20.0616 8.74014 20.0615C10.6494 20.0657 12.5569 20.0663 14.4626 20.0633Z" fill="white"/>
<path d="M12.8486 17.1012V10.9805L17.4918 14.0404L12.8486 17.1012Z" fill="white"/>
</svg>
